<svg width="720" height="146" viewBox="0 0 720 146" fill="none" xmlns="http://www.w3.org/2000/svg">
<path d="M142.874 116L108.994 39H120.874L152.004 110.06H145.184L176.534 39H187.534L153.764 116H142.874ZM222.098 116V103.68L221.548 101.37V80.36C221.548 75.8867 220.228 72.44 217.588 70.02C215.022 67.5267 211.135 66.28 205.928 66.28C202.482 66.28 199.108 66.8667 195.808 68.04C192.508 69.14 189.722 70.6433 187.448 72.55L183.048 64.63C186.055 62.21 189.648 60.3767 193.828 59.13C198.082 57.81 202.518 57.15 207.138 57.15C215.132 57.15 221.292 59.0933 225.618 62.98C229.945 66.8667 232.108 72.8067 232.108 80.8V116H222.098ZM202.958 116.66C198.632 116.66 194.818 115.927 191.518 114.46C188.292 112.993 185.798 110.977 184.038 108.41C182.278 105.77 181.398 102.8 181.398 99.5C181.398 96.3467 182.132 93.4867 183.598 90.92C185.138 88.3533 187.595 86.3 190.968 84.76C194.415 83.22 199.035 82.45 204.828 82.45H223.308V90.04H205.268C199.988 90.04 196.432 90.92 194.598 92.68C192.765 94.44 191.848 96.5667 191.848 99.06C191.848 101.92 192.985 104.23 195.258 105.99C197.532 107.677 200.685 108.52 204.718 108.52C208.678 108.52 212.125 107.64 215.058 105.88C218.065 104.12 220.228 101.553 221.548 98.18L223.638 105.44C222.245 108.887 219.788 111.637 216.268 113.69C212.748 115.67 208.312 116.66 202.958 116.66ZM246.151 116V57.7H256.271V73.54L255.281 69.58C256.894 65.5467 259.607 62.4667 263.421 60.34C267.234 58.2133 271.927 57.15 277.501 57.15V67.38C277.061 67.3067 276.621 67.27 276.181 67.27C275.814 67.27 275.447 67.27 275.081 67.27C269.434 67.27 264.961 68.9567 261.661 72.33C258.361 75.7033 256.711 80.58 256.711 86.96V116H246.151ZM285.016 116V57.7H295.576V116H285.016ZM290.296 46.48C288.243 46.48 286.519 45.82 285.126 44.5C283.806 43.18 283.146 41.5667 283.146 39.66C283.146 37.68 283.806 36.03 285.126 34.71C286.519 33.39 288.243 32.73 290.296 32.73C292.349 32.73 294.036 33.39 295.356 34.71C296.749 35.9567 297.446 37.5333 297.446 39.44C297.446 41.42 296.786 43.1067 295.466 44.5C294.146 45.82 292.423 46.48 290.296 46.48ZM336.199 116.66C329.965 116.66 324.465 115.377 319.699 112.81C315.005 110.243 311.339 106.723 308.699 102.25C306.132 97.7767 304.849 92.6433 304.849 86.85C304.849 81.0567 306.095 75.9233 308.589 71.45C311.155 66.9767 314.639 63.4933 319.039 61C323.512 58.4333 328.535 57.15 334.109 57.15C339.755 57.15 344.742 58.3967 349.069 60.89C353.395 63.3833 356.769 66.9033 359.189 71.45C361.682 75.9233 362.929 81.1667 362.929 87.18C362.929 87.62 362.892 88.1333 362.819 88.72C362.819 89.3067 362.782 89.8567 362.709 90.37H313.099V82.78H357.209L352.919 85.42C352.992 81.68 352.222 78.3433 350.609 75.41C348.995 72.4767 346.759 70.2033 343.899 68.59C341.112 66.9033 337.849 66.06 334.109 66.06C330.442 66.06 327.179 66.9033 324.319 68.59C321.459 70.2033 319.222 72.5133 317.609 75.52C315.995 78.4533 315.189 81.8267 315.189 85.64V87.4C315.189 91.2867 316.069 94.77 317.829 97.85C319.662 100.857 322.192 103.203 325.419 104.89C328.645 106.577 332.349 107.42 336.529 107.42C339.975 107.42 343.092 106.833 345.879 105.66C348.739 104.487 351.232 102.727 353.359 100.38L359.189 107.2C356.549 110.28 353.249 112.627 349.289 114.24C345.402 115.853 341.039 116.66 336.199 116.66ZM392.112 116.66C386.245 116.66 381.699 115.083 378.472 111.93C375.245 108.777 373.632 104.267 373.632 98.4V44.94H384.192V97.96C384.192 101.113 384.962 103.533 386.502 105.22C388.115 106.907 390.389 107.75 393.322 107.75C396.622 107.75 399.372 106.833 401.572 105L404.872 112.59C403.259 113.983 401.315 115.01 399.042 115.67C396.842 116.33 394.532 116.66 392.112 116.66ZM363.732 66.39V57.7H400.912V66.39H363.732ZM413.595 138C410.808 138 408.095 137.523 405.455 136.57C402.815 135.69 400.541 134.37 398.635 132.61L403.145 124.69C404.611 126.083 406.225 127.147 407.985 127.88C409.745 128.613 411.615 128.98 413.595 128.98C416.161 128.98 418.288 128.32 419.975 127C421.661 125.68 423.238 123.333 424.705 119.96L428.335 111.93L429.435 110.61L452.315 57.7H462.655L434.385 121.83C432.698 125.937 430.791 129.163 428.665 131.51C426.611 133.857 424.338 135.507 421.845 136.46C419.351 137.487 416.601 138 413.595 138ZM427.455 117.87L400.835 57.7H411.835L434.495 109.62L427.455 117.87Z" fill="black"/>
<path d="M486.907 116V39H497.907V106.43H539.597V116H486.907ZM581.37 116V103.68L580.82 101.37V80.36C580.82 75.8867 579.5 72.44 576.86 70.02C574.293 67.5267 570.407 66.28 565.2 66.28C561.753 66.28 558.38 66.8667 555.08 68.04C551.78 69.14 548.993 70.6433 546.72 72.55L542.32 64.63C545.327 62.21 548.92 60.3767 553.1 59.13C557.353 57.81 561.79 57.15 566.41 57.15C574.403 57.15 580.563 59.0933 584.89 62.98C589.217 66.8667 591.38 72.8067 591.38 80.8V116H581.37ZM562.23 116.66C557.903 116.66 554.09 115.927 550.79 114.46C547.563 112.993 545.07 110.977 543.31 108.41C541.55 105.77 540.67 102.8 540.67 99.5C540.67 96.3467 541.403 93.4867 542.87 90.92C544.41 88.3533 546.867 86.3 550.24 84.76C553.687 83.22 558.307 82.45 564.1 82.45H582.58V90.04H564.54C559.26 90.04 555.703 90.92 553.87 92.68C552.037 94.44 551.12 96.5667 551.12 99.06C551.12 101.92 552.257 104.23 554.53 105.99C556.803 107.677 559.957 108.52 563.99 108.52C567.95 108.52 571.397 107.64 574.33 105.88C577.337 104.12 579.5 101.553 580.82 98.18L582.91 105.44C581.517 108.887 579.06 111.637 575.54 113.69C572.02 115.67 567.583 116.66 562.23 116.66ZM636.332 116.66C631.345 116.66 626.835 115.56 622.802 113.36C618.842 111.087 615.689 107.75 613.342 103.35C611.069 98.95 609.932 93.45 609.932 86.85C609.932 80.25 611.105 74.75 613.452 70.35C615.872 65.95 619.062 62.65 623.022 60.45C627.055 58.25 631.492 57.15 636.332 57.15C642.052 57.15 647.112 58.3967 651.512 60.89C655.912 63.3833 659.395 66.8667 661.962 71.34C664.529 75.74 665.812 80.91 665.812 86.85C665.812 92.79 664.529 97.9967 661.962 102.47C659.395 106.943 655.912 110.427 651.512 112.92C647.112 115.413 642.052 116.66 636.332 116.66ZM605.422 116V34.38H615.982V73.21L614.882 86.74L615.542 100.27V116H605.422ZM635.452 107.42C639.192 107.42 642.529 106.577 645.462 104.89C648.469 103.203 650.815 100.82 652.502 97.74C654.262 94.5867 655.142 90.9567 655.142 86.85C655.142 82.67 654.262 79.0767 652.502 76.07C650.815 72.99 648.469 70.6067 645.462 68.92C642.529 67.2333 639.192 66.39 635.452 66.39C631.785 66.39 628.449 67.2333 625.442 68.92C622.509 70.6067 620.162 72.99 618.402 76.07C616.715 79.0767 615.872 82.67 615.872 86.85C615.872 90.9567 616.715 94.5867 618.402 97.74C620.162 100.82 622.509 103.203 625.442 104.89C628.449 106.577 631.785 107.42 635.452 107.42ZM691.623 116.66C686.783 116.66 682.163 116 677.763 114.68C673.436 113.36 670.026 111.747 667.533 109.84L671.933 101.48C674.426 103.167 677.506 104.597 681.173 105.77C684.839 106.943 688.579 107.53 692.393 107.53C697.306 107.53 700.826 106.833 702.953 105.44C705.153 104.047 706.253 102.103 706.253 99.61C706.253 97.7767 705.593 96.3467 704.273 95.32C702.953 94.2933 701.193 93.5233 698.993 93.01C696.866 92.4967 694.483 92.0567 691.843 91.69C689.203 91.25 686.563 90.7367 683.923 90.15C681.283 89.49 678.863 88.61 676.663 87.51C674.463 86.3367 672.703 84.76 671.383 82.78C670.063 80.7267 669.403 78.0133 669.403 74.64C669.403 71.12 670.393 68.04 672.373 65.4C674.353 62.76 677.139 60.7433 680.733 59.35C684.399 57.8833 688.726 57.15 693.713 57.15C697.526 57.15 701.376 57.6267 705.263 58.58C709.223 59.46 712.449 60.7433 714.943 62.43L710.433 70.79C707.793 69.03 705.043 67.82 702.183 67.16C699.323 66.5 696.463 66.17 693.603 66.17C688.983 66.17 685.536 66.94 683.263 68.48C680.989 69.9467 679.853 71.8533 679.853 74.2C679.853 76.18 680.513 77.72 681.833 78.82C683.226 79.8467 684.986 80.6533 687.113 81.24C689.313 81.8267 691.733 82.34 694.373 82.78C697.013 83.1467 699.653 83.66 702.293 84.32C704.933 84.9067 707.316 85.75 709.443 86.85C711.643 87.95 713.403 89.49 714.723 91.47C716.116 93.45 716.813 96.09 716.813 99.39C716.813 102.91 715.786 105.953 713.733 108.52C711.679 111.087 708.783 113.103 705.043 114.57C701.303 115.963 696.829 116.66 691.623 116.66Z" fill="black"/>
<path fill-rule="evenodd" clip-rule="evenodd" d="M30.7794 71.7189C27.9509 77.4484 24.9049 83.5849 21.9591 89.5174C21.7273 89.9843 21.4961 90.4498 21.2657 90.9138C18.5409 96.4011 15.9263 101.667 13.6658 106.241L13.8255 106.546H54.6644L55.4013 105.232L38.7394 71.7189H30.7794ZM46.2881 59.5356L23.1974 59.5356C19.3442 67.3899 14.7157 76.711 10.3474 85.508C6.44419 93.3684 2.74878 100.81 0 106.413L6.45662 118.729H61.7991L69.178 105.576L46.2881 59.5356Z" fill="url(#paint0_linear_201_105)"/>
<path fill-rule="evenodd" clip-rule="evenodd" d="M53.6016 71.7189C50.7732 77.4484 47.7272 83.5849 44.7814 89.5174C44.5496 89.9843 44.3184 90.4498 44.088 90.9138C41.3632 96.4011 38.7486 101.667 36.4881 106.241L36.6477 106.546H77.4866L78.2236 105.232L61.5616 71.7189H53.6016ZM69.1104 59.5356L46.0197 59.5356C42.1665 67.3899 37.538 76.711 33.1697 85.508C29.2665 93.3684 25.571 100.81 22.8223 106.413L29.2789 118.729H84.6213L92.0003 105.576L69.1104 59.5356Z" fill="url(#paint1_linear_201_105)"/>
<path fill-rule="evenodd" clip-rule="evenodd" d="M42.1905 48.1833C39.362 53.9128 36.3161 60.0492 33.3703 65.9817C33.1386 66.4483 32.9075 66.9136 32.6773 67.3773C29.9523 72.8649 27.3375 78.1307 25.077 82.7058L25.2366 83.0103H66.0755L66.8124 81.6967L50.1505 48.1833L42.1905 48.1833ZM57.6993 36L34.6085 36C30.7554 43.8543 26.1268 53.1754 21.7586 61.9724C17.8553 69.8328 14.1599 77.2747 11.4111 82.8778L17.8678 95.1936H73.2102L80.5892 82.0402L57.6993 36Z" fill="url(#paint2_linear_201_105)"/>
<defs>
<linearGradient id="paint0_linear_201_105" x1="34.589" y1="59.5356" x2="34.589" y2="118.729" gradientUnits="userSpaceOnUse">
<stop stop-color="#71CCFE"/>
<stop offset="1" stop-color="#30A3D4"/>
</linearGradient>
<linearGradient id="paint1_linear_201_105" x1="57.4113" y1="59.5356" x2="57.4113" y2="118.729" gradientUnits="userSpaceOnUse">
<stop stop-color="#71CCFE"/>
<stop offset="1" stop-color="#30A3D4"/>
</linearGradient>
<linearGradient id="paint2_linear_201_105" x1="46.0002" y1="36" x2="46.0002" y2="95.1936" gradientUnits="userSpaceOnUse">
<stop stop-color="#71CCFE"/>
<stop offset="1" stop-color="#30A3D4"/>
</linearGradient>
</defs>
</svg>
