<svg width="360" height="51" viewBox="0 0 360 51" fill="none" xmlns="http://www.w3.org/2000/svg">
<path d="M253.822 8.16068C254.038 8.17614 254.363 8.19933 254.796 8.23026C256.992 8.36942 258.53 8.439 259.412 8.439C260.293 8.439 261.174 8.41581 262.056 8.36942C262.937 8.32303 263.849 8.25345 264.792 8.16068L264.491 9.78422H264.259C263.269 9.78422 262.535 9.96203 262.056 10.3177C261.576 10.6578 261.205 11.2995 260.942 12.2427C260.587 13.5725 259.999 16.549 259.18 21.1722C258.376 25.7954 257.541 31.0681 256.675 36.9901C257.757 37.0984 258.816 37.1834 259.852 37.2453C260.888 37.3071 261.901 37.338 262.891 37.338C265.334 37.338 267.035 36.9979 267.993 36.3175C268.952 35.6372 269.671 34.3306 270.15 32.3978L271.866 32.6298C271.48 33.8822 271.147 35.096 270.869 36.2711C270.606 37.4308 270.382 38.5905 270.197 39.7501C266.764 39.6264 264.112 39.5414 262.241 39.495C260.37 39.4486 258.762 39.4254 257.417 39.4254C256.226 39.4254 254.92 39.4486 253.497 39.495C252.09 39.5414 250.374 39.6264 248.348 39.7501L248.58 38.2426C248.704 38.2426 248.851 38.2503 249.021 38.2658C249.176 38.2812 249.377 38.289 249.624 38.289C251.247 38.289 252.322 36.8046 252.848 33.8358C252.879 33.6503 252.902 33.5111 252.917 33.4183L256.373 14.1678C256.512 13.4256 256.605 12.8999 256.652 12.5906C256.698 12.2814 256.721 12.0263 256.721 11.8252C256.721 11.0212 256.505 10.48 256.072 10.2017C255.639 9.92338 254.773 9.78422 253.474 9.78422L253.822 8.16068Z" fill="black"/>
<path d="M285.922 25.463H289.053C291.001 25.463 292.424 25.463 293.32 25.463C294.217 25.4475 295.029 25.4243 295.756 25.3934L293.761 12.0572L285.922 25.463ZM272.817 38.2426C273.049 38.2735 273.227 38.2967 273.351 38.3122C273.459 38.3276 273.552 38.3353 273.629 38.3353C275.005 38.3353 276.66 36.6731 278.593 33.3488C279.165 32.3746 279.613 31.6092 279.938 31.0526L285.064 22.7494C286.347 20.6619 287.723 18.3426 289.192 15.7913C290.676 13.24 292.215 10.5264 293.807 7.65042H297.194C297.24 8.57816 297.356 9.73783 297.542 11.1294C297.743 12.521 298.114 14.8249 298.655 18.0411L300.371 28.0375C300.479 28.6405 300.626 29.4755 300.812 30.5423C301.446 34.2997 301.871 36.4721 302.088 37.0597C302.258 37.5236 302.505 37.8328 302.83 37.9874C303.154 38.1421 303.788 38.2194 304.732 38.2194L304.453 39.7501C303.294 39.6574 302.273 39.5878 301.392 39.5414C300.526 39.495 299.807 39.4718 299.235 39.4718C298.554 39.4718 297.743 39.495 296.799 39.5414C295.856 39.5878 294.797 39.6574 293.622 39.7501L293.9 38.2194H294.248C295.392 38.2194 296.181 38.057 296.614 37.7323C297.062 37.3921 297.286 36.7968 297.286 35.9464C297.286 35.8073 297.263 35.5444 297.217 35.1578C297.201 35.0496 297.194 34.9646 297.194 34.9027L296.15 27.4112C295.145 27.3958 294.179 27.3803 293.251 27.3648C292.323 27.3494 291.403 27.3417 290.491 27.3417C289.501 27.3417 288.55 27.3494 287.638 27.3648C286.726 27.3648 285.775 27.3803 284.785 27.4112L281.074 33.9518C280.657 34.7249 280.378 35.3047 280.239 35.6913C280.1 36.0778 280.031 36.418 280.031 36.7118C280.031 37.1911 280.239 37.5622 280.657 37.8251C281.074 38.0879 281.662 38.2194 282.419 38.2194H282.93L282.628 39.7501C282.257 39.7192 281.739 39.6806 281.074 39.6342C279.373 39.5259 278.237 39.4718 277.665 39.4718C277.062 39.4718 276.335 39.495 275.485 39.5414C274.634 39.5878 273.668 39.6574 272.585 39.7501L272.817 38.2426Z" fill="black"/>
<path d="M315.656 37.0829C316.506 37.3148 317.333 37.4849 318.137 37.5932C318.941 37.7014 319.73 37.7555 320.503 37.7555C323.24 37.7555 325.351 37.1216 326.835 35.8536C328.319 34.5703 329.061 32.7689 329.061 30.4496C329.061 28.3158 328.381 26.785 327.02 25.8573C325.66 24.9295 323.395 24.4657 320.225 24.4657C320.178 24.4657 320.055 24.4657 319.854 24.4657C319.096 24.4966 318.385 24.5121 317.72 24.5121C317.333 26.5376 316.97 28.5941 316.63 30.6815C316.29 32.7689 315.965 34.9027 315.656 37.0829ZM326.533 23.1204C328.791 23.4297 330.538 24.1873 331.775 25.3934C333.012 26.5995 333.631 28.1534 333.631 30.0553C333.631 32.9003 332.409 35.2584 329.966 37.1293C327.523 39.0002 324.384 39.9357 320.549 39.9357C319.498 39.9357 318.099 39.8584 316.351 39.7038C314.62 39.5491 313.429 39.4718 312.78 39.4718C312.053 39.4718 311.264 39.495 310.414 39.5414C309.564 39.5878 308.651 39.6574 307.677 39.7501L307.979 38.2194H308.883C309.842 38.2194 310.522 37.9488 310.924 37.4076C311.342 36.851 311.767 35.3202 312.2 32.8153L315.47 13.5879C315.532 13.1705 315.578 12.7994 315.609 12.4747C315.64 12.1499 315.656 11.8871 315.656 11.6861C315.656 11.0057 315.462 10.5187 315.076 10.2249C314.689 9.93111 314.048 9.78422 313.151 9.78422H312.733L313.012 8.0679C313.939 8.17614 314.813 8.26118 315.632 8.32303C316.467 8.36942 317.21 8.39261 317.859 8.39261C318.756 8.39261 320.001 8.33849 321.593 8.23026C323.186 8.12202 324.33 8.0679 325.026 8.0679C327.747 8.0679 329.904 8.71732 331.497 10.0162C333.105 11.315 333.909 13.0545 333.909 15.2347C333.909 17.152 333.267 18.7987 331.984 20.1749C330.716 21.5356 328.899 22.5174 326.533 23.1204ZM318.045 22.3551H320.225C323.487 22.3551 325.869 21.8371 327.368 20.8011C328.884 19.7651 329.641 18.1184 329.641 15.8609C329.641 14.0209 329.108 12.6293 328.041 11.6861C326.974 10.7274 325.412 10.2481 323.356 10.2481C322.969 10.2481 322.505 10.2635 321.964 10.2945C321.423 10.3254 320.828 10.3718 320.178 10.4336C319.838 12.2427 319.351 14.9641 318.717 18.5977C318.423 20.2677 318.199 21.5201 318.045 22.3551Z" fill="black"/>
<path d="M359.7 9.20438C359.406 10.194 359.159 11.2145 358.958 12.2659C358.757 13.3174 358.61 14.4074 358.517 15.5362L356.894 15.3275C356.94 14.9564 356.971 14.6394 356.986 14.3765C357.017 14.1137 357.033 13.9127 357.033 13.7735C357.033 12.5829 356.453 11.6242 355.293 10.8975C354.149 10.1553 352.688 9.78422 350.91 9.78422C349.101 9.78422 347.609 10.3099 346.433 11.3614C345.274 12.3973 344.694 13.7039 344.694 15.2811C344.694 16.4562 345.026 17.4612 345.691 18.2962C346.356 19.1157 347.895 20.1749 350.307 21.4737C353.6 23.2055 355.726 24.6899 356.685 25.9269C357.659 27.1484 358.146 28.6559 358.146 30.4496C358.146 33.14 356.886 35.5212 354.366 37.5932C351.845 39.6651 348.892 40.7011 345.506 40.7011C344.207 40.7011 342.908 40.5155 341.609 40.1444C340.326 39.7733 338.965 39.2012 337.527 38.4281C337.805 37.3612 338.03 36.2711 338.2 35.1578C338.37 34.0291 338.493 32.8694 338.571 31.6788L340.264 31.818C340.248 32.019 340.233 32.2123 340.218 32.3978C340.218 32.5679 340.218 32.7535 340.218 32.9545C340.218 34.5316 340.859 35.7995 342.143 36.7582C343.426 37.7014 345.096 38.173 347.152 38.173C349.162 38.173 350.856 37.5313 352.232 36.2479C353.608 34.9646 354.296 33.4106 354.296 31.5861C354.296 29.5141 352.533 27.5581 349.008 25.7181C348.343 25.3779 347.84 25.1151 347.5 24.9295C344.98 23.5534 343.225 22.2623 342.235 21.0562C341.246 19.8502 340.751 18.4508 340.751 16.8582C340.751 14.3379 341.88 12.1036 344.137 10.1553C346.41 8.1916 349.031 7.20975 352 7.20975C353.314 7.20975 354.582 7.3721 355.804 7.69681C357.041 8.00605 358.339 8.50858 359.7 9.20438Z" fill="black"/>
<path d="M53.8029 8.39505C54.9016 8.45365 55.9416 8.49759 56.923 8.52689C57.9045 8.55619 58.7688 8.57084 59.5158 8.57084C60.4533 8.57084 61.4055 8.55619 62.3723 8.52689C63.3537 8.49759 64.3572 8.45365 65.3825 8.39505L65.3606 9.77934C64.1301 9.88187 63.3098 10.043 62.8996 10.2627C62.5041 10.4825 62.3064 10.8633 62.3064 11.4053C62.3064 11.8155 62.3796 12.3355 62.5261 12.9654C62.6872 13.5806 62.9655 14.4376 63.3611 15.5362L69.9748 34.0372C73.5051 25.1749 75.7244 19.4327 76.6326 16.8106C77.5554 14.1739 78.0169 12.4454 78.0169 11.625C78.0169 10.9512 77.8338 10.4898 77.4676 10.2408C77.116 9.99174 76.2957 9.83793 75.0066 9.77934V8.39505C75.8855 8.45365 76.7498 8.49759 77.5994 8.52689C78.4636 8.55619 79.3059 8.57084 80.1263 8.57084C80.8294 8.57084 81.6131 8.55619 82.4773 8.52689C83.3416 8.49759 84.2425 8.45365 85.18 8.39505V9.77934H84.8504C83.2391 9.77934 81.8694 11.2002 80.7415 14.042C80.4925 14.6866 80.2874 15.1846 80.1263 15.5362C75.9954 25.4532 73.3367 31.9059 72.1501 34.8942C70.9636 37.8825 70.3411 39.6183 70.2825 40.1017H67.5798C67.5798 39.7501 66.8987 37.5602 65.5364 33.5319C64.174 29.5035 62.5261 24.9405 60.5925 19.8428C60.4606 19.4766 60.2702 18.9566 60.0212 18.2828C57.8972 12.5845 56.0222 9.73539 54.3962 9.73539C54.2497 9.73539 54.1325 9.74271 54.0446 9.75736C53.9714 9.75736 53.8908 9.76469 53.8029 9.77934V8.39505Z" fill="black"/>
<path d="M96.5619 12.5259L91.5301 25.6656C91.8084 25.6656 92.2113 25.6729 92.7386 25.6876C94.3939 25.7315 95.5218 25.7535 96.1224 25.7535C96.8548 25.7535 98.1805 25.7315 100.099 25.6876C100.524 25.6729 100.847 25.6656 101.066 25.6656L96.5619 12.5259ZM95.5731 8.39505H99.3524C101.257 14.2105 103.058 19.5206 104.758 24.3253C106.472 29.13 107.819 32.7408 108.801 35.1578C109.387 36.5495 109.892 37.4064 110.317 37.7287C110.742 38.0509 111.35 38.2121 112.141 38.2121H112.58V39.7501C111.437 39.6916 110.39 39.6476 109.438 39.6183C108.5 39.589 107.709 39.5744 107.065 39.5744C106.245 39.5744 105.344 39.589 104.362 39.6183C103.381 39.6476 102.341 39.6916 101.242 39.7501V38.2121H101.66C102.7 38.2121 103.41 38.0949 103.791 37.8605C104.172 37.6115 104.362 37.1647 104.362 36.5202C104.362 36.2858 104.333 36.0294 104.274 35.7511C104.216 35.4581 104.12 35.1139 103.989 34.7184L101.835 27.9947C101.279 27.9947 100.517 27.9874 99.5502 27.9728C97.7923 27.9288 96.6644 27.9068 96.1664 27.9068C95.1703 27.9068 94.2254 27.9142 93.3319 27.9288C92.453 27.9288 91.5374 27.9435 90.5853 27.9728C89.5452 30.5948 88.8348 32.5065 88.4539 33.7076C88.0731 34.9088 87.8826 35.7658 87.8826 36.2785C87.8826 36.9962 88.0731 37.5016 88.4539 37.7946C88.8348 38.0729 89.5159 38.2121 90.4974 38.2121H91.0906V39.7501C90.0213 39.6916 89.0179 39.6476 88.0804 39.6183C87.1575 39.589 86.3299 39.5744 85.5975 39.5744C85.0115 39.5744 84.2791 39.589 83.4002 39.6183C82.5213 39.6476 81.5691 39.6916 80.5437 39.7501V38.234C81.5838 38.2047 82.4041 37.9997 83.0047 37.6188C83.6199 37.2233 84.1546 36.5714 84.6087 35.6632C85.429 33.9493 86.8792 30.5216 88.9593 25.38C91.054 20.2237 93.2586 14.5621 95.5731 8.39505Z" fill="black"/>
<path d="M123.237 24.2594C123.94 24.3326 124.599 24.3839 125.214 24.4132C125.844 24.4425 126.401 24.4571 126.884 24.4571C127.294 24.4571 127.763 24.4498 128.29 24.4352C128.818 24.4059 129.389 24.3619 130.004 24.3033C131.411 23.4537 132.443 22.4723 133.103 21.359C133.762 20.231 134.091 18.8907 134.091 17.338C134.091 15.3018 133.432 13.6685 132.114 12.438C130.795 11.2076 129.023 10.5923 126.796 10.5923C126.196 10.5923 125.61 10.6216 125.039 10.6802C124.467 10.7242 123.903 10.7974 123.347 10.8999C123.303 12.7164 123.273 14.584 123.259 16.503C123.244 18.4219 123.237 21.0074 123.237 24.2594ZM115.414 38.3219C115.517 38.3366 115.612 38.3512 115.7 38.3659C115.803 38.3659 115.949 38.3659 116.14 38.3659C118.088 38.3659 119.077 35.6266 119.106 30.1481C119.121 28.7711 119.135 27.6944 119.15 26.9181L119.238 20.9195C119.252 19.6304 119.26 18.378 119.26 17.1622C119.274 15.9463 119.282 14.628 119.282 13.2071C119.282 11.9473 119.047 11.0757 118.579 10.5923C118.11 10.1089 117.275 9.86723 116.074 9.86723H115.898V8.32913C116.879 8.40238 117.846 8.45365 118.798 8.48294C119.765 8.51224 120.703 8.52689 121.611 8.52689C122.592 8.52689 123.808 8.49759 125.258 8.439C126.723 8.36576 127.697 8.32913 128.181 8.32913C131.184 8.32913 133.645 9.12015 135.563 10.7022C137.482 12.2842 138.442 14.2691 138.442 16.6568C138.442 18.4293 137.958 20.0113 136.992 21.4029C136.04 22.7799 134.604 23.9591 132.685 24.9405L136.794 31.1588C136.94 31.3932 137.16 31.7301 137.453 32.1696C140.295 36.5055 142.624 38.6735 144.44 38.6735H144.66V39.9259C144.455 39.9406 144.147 39.9699 143.737 40.0138C142.785 40.1017 142.089 40.1457 141.65 40.1457C140.097 40.1457 138.867 39.9406 137.958 39.5304C137.065 39.1056 136.179 38.2926 135.3 37.0914C135.153 36.901 134.34 35.5973 132.861 33.1803C131.396 30.7633 129.916 28.4855 128.422 26.3468C127.866 26.4054 127.272 26.4493 126.643 26.4786C126.013 26.5079 125.317 26.5226 124.555 26.5226H123.237V33.2682C123.237 35.4655 123.464 36.8571 123.918 37.443C124.372 38.0143 125.273 38.2999 126.621 38.2999C126.665 38.2999 126.723 38.2926 126.796 38.278C126.87 38.2633 126.928 38.256 126.972 38.256C127.031 38.256 127.075 38.2633 127.104 38.278C127.148 38.2926 127.177 38.2999 127.192 38.2999V39.7501C126.152 39.6916 125.119 39.6476 124.094 39.6183C123.068 39.589 122.05 39.5744 121.039 39.5744C120.497 39.5744 119.736 39.589 118.754 39.6183C117.773 39.6476 116.66 39.6916 115.414 39.7501V38.3219Z" fill="black"/>
<path d="M147.055 8.39505C148.081 8.45365 149.099 8.49759 150.109 8.52689C151.12 8.55619 152.109 8.57084 153.076 8.57084C153.896 8.57084 154.812 8.55619 155.822 8.52689C156.833 8.49759 157.902 8.45365 159.03 8.39505V9.91117H158.657C157.705 9.91117 156.987 10.021 156.503 10.2408C156.035 10.4605 155.705 10.8267 155.515 11.3394C155.398 11.6763 155.31 12.2256 155.251 12.9874C155.207 13.7344 155.185 14.9576 155.185 16.6568V31.9718C155.185 33.7003 155.222 34.9161 155.295 35.6193C155.383 36.3224 155.515 36.8424 155.69 37.1793C155.881 37.5455 156.218 37.8092 156.701 37.9704C157.199 38.1315 157.895 38.2121 158.789 38.2121H159.25V39.7501C157.99 39.6916 156.826 39.6476 155.756 39.6183C154.687 39.589 153.794 39.5744 153.076 39.5744C152.226 39.5744 151.267 39.589 150.197 39.6183C149.128 39.6476 148.007 39.6916 146.835 39.7501V38.2121H147.275C148.183 38.2121 148.879 38.1315 149.362 37.9704C149.846 37.8092 150.183 37.5455 150.373 37.1793C150.578 36.7838 150.717 36.1393 150.791 35.2457C150.878 34.3375 150.922 32.7042 150.922 30.3458V18.2828C150.922 15.983 150.893 14.3497 150.835 13.3829C150.776 12.4014 150.681 11.7203 150.549 11.3394C150.373 10.8267 150.051 10.4605 149.582 10.2408C149.128 10.021 148.418 9.91117 147.451 9.91117H147.055V8.39505Z" fill="black"/>
<path d="M162.832 8.39505C165.395 8.48294 167.688 8.54886 169.709 8.59281C171.731 8.63675 173.474 8.65873 174.939 8.65873C176.565 8.65873 178.205 8.63675 179.861 8.59281C181.53 8.54886 183.222 8.48294 184.936 8.39505C184.951 9.49369 184.995 10.6216 185.068 11.7789C185.141 12.9214 185.229 14.0713 185.332 15.2286L183.86 15.3604C183.742 13.6026 183.2 12.4161 182.234 11.8008C181.267 11.1709 179.179 10.856 175.971 10.856C175.151 10.856 173.65 10.878 171.467 10.9219C171.027 10.9366 170.705 10.9439 170.5 10.9439C170.471 12.7017 170.427 14.855 170.368 17.4039C170.31 19.9527 170.273 21.608 170.258 22.3697H170.94C171.804 22.3697 172.88 22.3844 174.17 22.4137C175.473 22.4283 176.345 22.4356 176.784 22.4356C178.908 22.4356 180.307 22.2379 180.981 21.8424C181.67 21.4469 182.043 20.7144 182.102 19.6451L183.486 19.7769C183.383 20.6851 183.303 21.5274 183.244 22.3038C183.2 23.0802 183.178 23.7979 183.178 24.4571C183.178 24.838 183.215 25.6583 183.288 26.9181C183.318 27.3722 183.34 27.7164 183.354 27.9508L181.926 27.9947V27.819C181.926 26.5738 181.56 25.7315 180.827 25.2921C180.11 24.8526 178.418 24.6329 175.752 24.6329H170.258C170.258 25.3507 170.251 26.3468 170.236 27.6212C170.222 28.881 170.214 29.7892 170.214 30.3458C170.214 31.3126 170.222 32.3234 170.236 33.3781C170.251 34.4181 170.28 35.6412 170.324 37.0475C171.057 37.1354 171.884 37.2013 172.807 37.2453C173.745 37.2892 174.77 37.3112 175.883 37.3112C179.56 37.3112 181.977 36.9596 183.134 36.2565C184.306 35.5387 185.236 34.1691 185.925 32.1476L187.507 32.6749C187.068 33.8908 186.679 35.0846 186.342 36.2565C186.006 37.4284 185.713 38.5929 185.464 39.7501C183.164 39.6623 181.025 39.5963 179.048 39.5524C177.07 39.5084 175.283 39.4865 173.686 39.4865C171.504 39.4865 167.988 39.567 163.139 39.7282L162.348 39.7501V38.3219C162.451 38.3366 162.546 38.3512 162.634 38.3659C162.736 38.3659 162.883 38.3659 163.073 38.3659C165.022 38.3659 166.01 35.6266 166.04 30.1481C166.054 28.7711 166.069 27.6944 166.084 26.9181L166.171 20.9195C166.186 19.6304 166.193 18.378 166.193 17.1622C166.208 15.9463 166.215 14.628 166.215 13.2071C166.215 11.9473 165.981 11.0757 165.512 10.5923C165.044 10.1089 164.209 9.86723 163.007 9.86723H162.832V8.39505Z" fill="black"/>
<path d="M196.538 38.2121H197.307C198.347 38.2121 199.087 38.0875 199.526 37.8385C199.966 37.5748 200.273 37.0988 200.449 36.4103C200.581 35.9562 200.669 34.3082 200.713 31.4664C200.771 28.6246 200.801 24.2008 200.801 18.1949V11.1856H196.362C194.209 11.1856 192.751 11.4786 191.989 12.0645C191.242 12.6358 190.686 13.8516 190.32 15.712L188.891 15.4044C189.17 14.1299 189.382 12.8775 189.529 11.647C189.675 10.4165 189.748 9.20804 189.748 8.02152C190.188 8.29984 191.074 8.49759 192.407 8.61478C193.755 8.73197 196.106 8.79056 199.46 8.79056H204.822C209.275 8.79056 212.138 8.73929 213.413 8.63675C214.702 8.51957 215.603 8.31449 216.116 8.02152C216.116 8.168 216.108 8.40238 216.094 8.72464C216.079 9.03226 216.072 9.26664 216.072 9.42777C216.072 10.3506 216.108 11.3028 216.181 12.2842C216.269 13.2657 216.394 14.2764 216.555 15.3165L215.171 15.5801C214.995 13.9249 214.541 12.7969 213.808 12.1963C213.091 11.5957 211.567 11.2588 209.238 11.1856H205.085C205.071 12.0206 205.056 13.1998 205.041 14.7232C205.012 18.7222 204.997 21.4102 204.997 22.7872C204.997 27.9874 205.027 31.5104 205.085 33.3561C205.158 35.2018 205.276 36.3517 205.437 36.8058C205.627 37.3331 205.942 37.6994 206.382 37.9044C206.821 38.1095 207.495 38.2121 208.403 38.2121H209.172V39.7501C207.956 39.6916 206.806 39.6476 205.722 39.6183C204.653 39.589 203.694 39.5744 202.844 39.5744C202.097 39.5744 201.174 39.589 200.075 39.6183C198.991 39.6476 197.812 39.6916 196.538 39.7501V38.2121Z" fill="black"/>
<path d="M217.983 8.39505C219.067 8.45365 220.085 8.49759 221.037 8.52689C221.99 8.55619 222.832 8.57084 223.564 8.57084C224.355 8.57084 225.205 8.55619 226.113 8.52689C227.021 8.49759 227.973 8.45365 228.97 8.39505V9.91117H228.662C227.856 9.91117 227.241 9.99906 226.816 10.1748C226.391 10.336 226.179 10.5777 226.179 10.8999C226.179 11.2515 226.538 12.0425 227.256 13.273C227.446 13.5953 227.6 13.8589 227.717 14.064L233.013 23.5123C235.415 19.6597 237.217 16.6861 238.418 14.5914C239.619 12.4966 240.22 11.2808 240.22 10.9439C240.22 10.5923 240.037 10.336 239.67 10.1748C239.319 9.99906 238.74 9.91117 237.934 9.91117H237.561V8.39505C238.44 8.45365 239.275 8.49759 240.066 8.52689C240.857 8.55619 241.553 8.57084 242.153 8.57084C242.9 8.57084 243.662 8.55619 244.438 8.52689C245.215 8.49759 246.013 8.45365 246.833 8.39505V9.91117C246.804 9.89652 246.767 9.8892 246.724 9.8892C246.68 9.87455 246.614 9.86723 246.526 9.86723H246.262C244.958 9.86723 243.267 11.5372 241.186 14.877C240.542 15.9171 240.029 16.7374 239.648 17.338L234.111 25.7975L234.199 33.6417C234.228 35.6779 234.463 36.9523 234.902 37.465C235.342 37.963 236.213 38.2121 237.517 38.2121H238.286V39.7501C237.07 39.6916 235.913 39.6476 234.814 39.6183C233.73 39.589 232.756 39.5744 231.892 39.5744C231.16 39.5744 230.244 39.589 229.145 39.6183C228.061 39.6476 226.882 39.6916 225.608 39.7501V38.2121C225.71 38.2121 225.864 38.2194 226.069 38.234C226.274 38.2487 226.421 38.256 226.509 38.256C227.783 38.256 228.647 37.963 229.101 37.3771C229.556 36.7912 229.797 35.5753 229.827 33.7296L229.914 25.9293L222.817 13.9542C222.685 13.7637 222.517 13.4854 222.312 13.1192C221.008 10.9219 219.822 9.82328 218.752 9.82328C218.679 9.82328 218.584 9.83061 218.467 9.84525C218.364 9.8599 218.21 9.88187 218.005 9.91117L217.983 8.39505Z" fill="black"/>
<path fill-rule="evenodd" clip-rule="evenodd" d="M16.2138 2.296C16.9252 0.887887 18.3687 0 19.9465 0H27.1257C28.0141 0 28.7342 0.720054 28.7342 1.60829C28.7342 2.49652 28.0141 3.21657 27.1257 3.21657H19.9465C19.5824 3.21657 19.2493 3.42147 19.0851 3.74642L17.3915 7.09841L3.89118 36.8268C1.66688 41.7248 5.2482 47.2836 10.6281 47.2836H51.0115C51.8998 47.2836 52.62 48.0037 52.62 48.8919C52.62 49.7801 51.8998 50.5002 51.0115 50.5002H10.6281C2.90912 50.5002 -2.2293 42.5245 0.962086 35.4969L14.49 5.70765L16.2138 2.296Z" fill="black"/>
<path fill-rule="evenodd" clip-rule="evenodd" d="M13.259 40.5471H41.2313C42.6234 40.5471 43.5579 39.1177 43.0002 37.8414L31.3579 11.1999H23.1324L11.49 37.8414C10.9323 39.1177 11.8669 40.5471 13.259 40.5471ZM22.7114 7.98026C21.6885 7.98026 20.7627 8.58628 20.3529 9.52406L8.54186 36.5515C7.05457 39.9549 9.54666 43.7668 13.259 43.7668H41.2313C44.9436 43.7668 47.4357 39.9549 45.9484 36.5515L34.1374 9.52406C33.7276 8.58628 32.8018 7.98026 31.7789 7.98026H22.7114Z" fill="black"/>
<path fill-rule="evenodd" clip-rule="evenodd" d="M28.0621 16.7113C28.8756 16.3566 29.8226 16.7283 30.1774 17.5418L37.883 35.2083C38.2378 36.0218 37.866 36.9688 37.0526 37.3236C36.2392 37.6784 35.2921 37.3066 34.9374 36.4932L27.2317 18.8266C26.8769 18.0132 27.2487 17.0661 28.0621 16.7113Z" fill="black"/>
</svg>
